<svg width="93" height="109" viewBox="0 0 93 109" fill="none" xmlns="http://www.w3.org/2000/svg">
<path d="M56.9529 43.2579H39.6548V45.4773H57.4408C58.5555 45.4674 59.6537 45.7478 60.6277 46.2912C61.6017 46.8346 62.4182 47.6223 62.9971 48.5771C62.8052 47.1063 62.0861 45.7558 60.9741 44.7771C59.862 43.7984 58.4328 43.2585 56.9529 43.2579Z" fill="#CDAE7E"/>
<path d="M43.2625 22.0354H36.3702C34.8881 22.0334 33.456 22.5721 32.3413 23.551C31.2266 24.5298 30.5054 25.8818 30.3125 27.3545C30.8923 26.3995 31.7093 25.6116 32.6837 25.0677C33.6582 24.5238 34.7567 24.2426 35.8721 24.2514H43.2524L43.2625 22.0354Z" fill="#CDAE7E"/>
<path d="M56.9529 22.0354H45.4769V24.2514H57.4308C58.5457 24.2422 59.644 24.5233 60.6179 25.0672C61.5919 25.6112 62.4083 26.3994 62.987 27.3545C62.7953 25.8855 62.0777 24.5363 60.9678 23.5579C59.8578 22.5795 58.431 22.0384 56.9529 22.0354Z" fill="#CDAE7E"/>
<path d="M86.7231 62.0924H66.2952V64.3084H87.211C88.326 64.2992 89.4243 64.5803 90.3982 65.1242C91.3722 65.6682 92.1885 66.4564 92.7673 67.4115C92.5753 65.9408 91.8563 64.5903 90.7443 63.6116C89.6322 62.6329 88.203 62.093 86.7231 62.0924Z" fill="#CDAE7E"/>
<path d="M86.7231 29.7156H66.2952V31.935H87.211C88.3256 31.9257 89.4235 32.2064 90.3974 32.7498C91.3713 33.2931 92.1879 34.0804 92.7673 35.0347C92.5747 33.5643 91.8554 32.2141 90.7435 31.2356C89.6316 30.2571 88.2028 29.7169 86.7231 29.7156Z" fill="#CDAE7E"/>
<path d="M86.7231 40.8665H66.2952V43.0859H87.211C88.3256 43.0766 89.4235 43.3574 90.3974 43.9007C91.3713 44.444 92.1879 45.2313 92.7673 46.1856C92.5747 44.7152 91.8554 43.3651 90.7435 42.3865C89.6316 41.408 88.2028 40.8678 86.7231 40.8665Z" fill="#CDAE7E"/>
<path d="M86.7231 51.4778H66.2952V53.6972H87.211C88.326 53.6879 89.4243 53.969 90.3982 54.513C91.3722 55.0569 92.1885 55.8451 92.7673 56.8003C92.5754 55.3292 91.8565 53.9783 90.7445 52.9991C89.6325 52.0198 88.2033 51.4792 86.7231 51.4778Z" fill="#CDAE7E"/>
<path d="M76.0716 35.2911H66.2918V37.5104H76.0716V35.2911Z" fill="#CDAE7E"/>
<path d="M86.7231 35.2911H78.2894V37.5105H87.211C88.3256 37.5012 89.4235 37.7819 90.3974 38.3252C91.3713 38.8685 92.1879 39.6559 92.7673 40.6102C92.5747 39.1398 91.8554 37.7896 90.7435 36.8111C89.6316 35.8325 88.2028 35.2923 86.7231 35.2911Z" fill="#CDAE7E"/>
<path d="M69.2533 46.1722H66.2918V48.3915H69.2533V46.1722Z" fill="#CDAE7E"/>
<path d="M86.7231 46.1722H71.4678V48.3916H87.211C88.3256 48.3823 89.4235 48.663 90.3974 49.2063C91.3713 49.7496 92.1879 50.5369 92.7673 51.4913C92.5747 50.0208 91.8554 48.6707 90.7435 47.6922C89.6316 46.7136 88.2028 46.1734 86.7231 46.1722Z" fill="#CDAE7E"/>
<path d="M79.5279 56.7834H66.2918V59.0028H79.5279V56.7834Z" fill="#CDAE7E"/>
<path d="M86.7231 56.7767H81.7456V58.9961H87.211C88.326 58.9868 89.4243 59.2679 90.3982 59.8119C91.3722 60.3558 92.1885 61.144 92.7673 62.0992C92.5754 60.6281 91.8565 59.2772 90.7445 58.2979C89.6325 57.3187 88.2033 56.7781 86.7231 56.7767Z" fill="#CDAE7E"/>
<path d="M69.2533 67.3981H66.2918V69.6174H69.2533V67.3981Z" fill="#CDAE7E"/>
<path d="M86.7231 67.398H71.4678V69.6141H87.211C88.326 69.6048 89.4243 69.8859 90.3982 70.4299C91.3722 70.9738 92.1885 71.762 92.7673 72.7172C92.5753 71.2465 91.8563 69.8959 90.7443 68.9172C89.6322 67.9386 88.203 67.3986 86.7231 67.398Z" fill="#CDAE7E"/>
<path d="M86.7231 24.1401H72.7332V26.3595H87.2043C88.3198 26.348 89.4192 26.6274 90.3944 27.1703C91.3697 27.7131 92.1874 28.5007 92.7673 29.4559C92.5746 27.9858 91.8553 26.636 90.7433 25.658C89.6313 24.6801 88.2025 24.1406 86.7231 24.1401Z" fill="#CDAE7E"/>
<path d="M70.5154 24.1401H66.2918V26.3595H70.5154V24.1401Z" fill="#CDAE7E"/>
<path d="M41.0514 64.4805H36.3702C34.8883 64.4792 33.4566 65.0182 32.342 65.9969C31.2274 66.9755 30.5061 68.3271 30.3125 69.7996C30.8929 68.8455 31.7102 68.0584 32.6845 67.5151C33.6589 66.9719 34.7571 66.691 35.8721 66.6999H41.0413L41.0514 64.4805Z" fill="#CDAE7E"/>
<path d="M56.9529 64.4805H43.2625V66.6999H57.4308C58.5453 66.6906 59.6432 66.9713 60.6171 67.5146C61.591 68.058 62.4076 68.8453 62.987 69.7996C62.7946 68.3309 62.0768 66.9821 60.967 66.0038C59.8572 65.0255 58.4308 64.4842 56.9529 64.4805Z" fill="#CDAE7E"/>
<path d="M49.3067 53.8692H36.3702C34.8883 53.8679 33.4566 54.4069 32.342 55.3856C31.2274 56.3643 30.5061 57.7159 30.3125 59.1883C30.8954 58.2352 31.715 57.4499 32.6912 56.909C33.6674 56.3681 34.7668 56.09 35.8822 56.1021H49.3067V53.8692Z" fill="#CDAE7E"/>
<path d="M56.9529 53.8692H51.5178V56.1021H57.4308C58.5453 56.0928 59.6432 56.3735 60.6171 56.9169C61.591 57.4602 62.4076 58.2475 62.987 59.2018C62.7983 57.7304 62.082 56.3779 60.9718 55.3968C59.8615 54.4156 58.4331 53.8727 56.9529 53.8692Z" fill="#CDAE7E"/>
<path d="M56.9529 32.6467H53.6514V34.8526H57.4408C58.5558 34.8433 59.6541 35.1244 60.628 35.6684C61.602 36.2123 62.4184 37.0005 62.9971 37.9557C62.8029 36.4868 62.0829 35.1386 60.9711 34.162C59.8592 33.1854 58.4313 32.6469 56.9529 32.6467Z" fill="#CDAE7E"/>
<path d="M51.4303 32.6467H36.3702C34.8881 32.6447 33.456 33.1834 32.3413 34.1622C31.2266 35.1411 30.5054 36.4931 30.3125 37.9658C30.8923 37.0108 31.7093 36.2229 32.6837 35.679C33.6582 35.1351 34.7567 34.8538 35.8721 34.8627H51.4202L51.4303 32.6467Z" fill="#CDAE7E"/>
<path d="M56.9529 11.1509H39.4529V13.3703H57.4173C58.5322 13.3611 59.6305 13.6422 60.6045 14.1861C61.5785 14.7301 62.3948 15.5183 62.9735 16.4734C62.7822 15.0064 62.0667 13.6587 60.9596 12.68C59.8526 11.7013 58.429 11.158 56.9529 11.1509Z" fill="#CDAE7E"/>
<path d="M48.2029 5.57547H36.3702C34.8878 5.57431 33.4557 6.11376 32.341 7.09314C31.2264 8.07252 30.5053 9.42492 30.3125 10.898C30.8923 9.94298 31.7093 9.15505 32.6837 8.61116C33.6582 8.06726 34.7567 7.78601 35.8721 7.79487H48.2029V5.57547Z" fill="#CDAE7E"/>
<path d="M56.9529 5.57547H50.4106V7.79487H57.4308C58.5463 7.78663 59.6448 8.0689 60.6188 8.61404C61.5928 9.15919 62.4088 9.94851 62.987 10.9047C62.7969 9.43417 62.0801 8.08297 60.97 7.10261C59.86 6.12226 58.4324 5.57953 56.9529 5.57547Z" fill="#CDAE7E"/>
<path d="M86.7231 67.398H86.0331V69.6141H87.211C88.326 69.6048 89.4243 69.8859 90.3982 70.4299C91.3722 70.9738 92.1885 71.762 92.7673 72.7172C92.5753 71.2465 91.8563 69.8959 90.7443 68.9172C89.6322 67.9386 88.203 67.3986 86.7231 67.398Z" fill="#CDAE7E"/>
<path d="M35.8822 61.3942H57.4207C58.5352 61.3849 59.6331 61.6657 60.607 62.209C61.5809 62.7523 62.3975 63.5396 62.9769 64.4939C62.784 63.0212 62.0628 61.6692 60.9481 60.6904C59.8333 59.7116 58.4012 59.1728 56.9192 59.1748H36.3702C34.8878 59.1737 33.4557 59.7131 32.341 60.6925C31.2264 61.6719 30.5053 63.0243 30.3125 64.4973C30.8931 63.5409 31.7118 62.752 32.6881 62.208C33.6645 61.664 34.7651 61.3836 35.8822 61.3942Z" fill="#CDAE7E"/>
<path d="M35.8822 50.783H57.4207C58.5354 50.773 59.6335 51.0535 60.6075 51.5969C61.5815 52.1402 62.398 52.9279 62.9769 53.8827C62.7847 52.4097 62.0637 51.0572 60.9488 50.0783C59.8339 49.0993 58.4014 48.5609 56.9192 48.5636H36.3702C34.8883 48.5623 33.4566 49.1013 32.342 50.08C31.2274 51.0587 30.5061 52.4103 30.3125 53.8827C30.8938 52.9271 31.7126 52.139 32.6889 51.5957C33.6652 51.0524 34.7655 50.7723 35.8822 50.783Z" fill="#CDAE7E"/>
<path d="M35.8822 40.1717H57.4207C58.5383 40.1614 59.6394 40.4431 60.6155 40.9889C61.5915 41.5348 62.4089 42.3261 62.987 43.2849C62.7948 41.8119 62.0738 40.4595 60.9589 39.4805C59.844 38.5016 58.4115 37.9631 56.9293 37.9658H36.3702C34.8881 37.9638 33.456 38.5025 32.3413 39.4813C31.2266 40.4602 30.5054 41.8122 30.3125 43.2849C30.8916 42.3263 31.7097 41.5353 32.6862 40.9894C33.6627 40.4436 34.7641 40.1618 35.8822 40.1717Z" fill="#CDAE7E"/>
<path d="M35.8822 29.5571H57.4207C58.5356 29.5478 59.6339 29.8289 60.6078 30.3729C61.5818 30.9168 62.3982 31.705 62.9769 32.6602C62.7847 31.1871 62.0637 29.8347 60.9488 28.8558C59.8339 27.8768 58.4014 27.3383 56.9192 27.341H36.3702C34.8881 27.3391 33.456 27.8778 32.3413 28.8566C31.2266 29.8354 30.5054 31.1874 30.3125 32.6602C30.8931 31.7037 31.7118 30.9148 32.6881 30.3708C33.6645 29.8269 34.7651 29.5464 35.8822 29.5571Z" fill="#CDAE7E"/>
<path d="M35.8822 18.9458H57.4207C58.5356 18.9365 59.6339 19.2176 60.6078 19.7616C61.5818 20.3056 62.3982 21.0937 62.9769 22.0489C62.7847 20.5756 62.0639 19.2227 60.9491 18.2432C59.8343 17.2637 58.4018 16.7245 56.9192 16.7264H36.3702C34.8878 16.7252 33.4557 17.2647 32.341 18.2441C31.2264 19.2234 30.5053 20.5758 30.3125 22.0489C30.8931 21.0924 31.7118 20.3036 32.6881 19.7596C33.6645 19.2156 34.7651 18.9352 35.8822 18.9458Z" fill="#CDAE7E"/>
<path d="M35.8822 2.2194H57.4207C58.5352 2.21011 59.6331 2.49085 60.607 3.03417C61.5809 3.57749 62.3975 4.3648 62.9769 5.31913C62.784 3.8464 62.0628 2.49439 60.9481 1.51556C59.8333 0.536738 58.4012 -0.00198178 56.9192 5.47844e-06H36.3702C34.8883 -0.00126243 33.4566 0.537709 32.342 1.5164C31.2274 2.4951 30.5061 3.84669 30.3125 5.31913C30.8938 4.36351 31.7126 3.57549 32.6889 3.03215C33.6652 2.48881 34.7655 2.20876 35.8822 2.2194Z" fill="#CDAE7E"/>
<path d="M56.9529 43.2579H56.263V45.4773H57.4408C58.5555 45.4674 59.6537 45.7478 60.6277 46.2912C61.6017 46.8346 62.4182 47.6223 62.9971 48.5771C62.8052 47.1063 62.0861 45.7558 60.9741 44.7771C59.862 43.7984 58.4328 43.2585 56.9529 43.2579Z" fill="#CDAE7E"/>
<path d="M56.9529 5.1467e-06H56.263V2.2194H57.4408C58.5554 2.21011 59.6533 2.49085 60.6272 3.03417C61.6011 3.57749 62.4177 4.3648 62.9971 5.31913C62.8045 3.8487 62.0853 2.49853 60.9733 1.52001C59.8614 0.541485 58.4326 0.00129292 56.9529 5.1467e-06Z" fill="#CDAE7E"/>
<path d="M56.9529 48.5636H56.263V50.783H57.4408C58.5555 50.773 59.6537 51.0535 60.6277 51.5969C61.6017 52.1402 62.4182 52.9279 62.9971 53.8827C62.8052 52.412 62.0861 51.0614 60.9741 50.0827C59.862 49.1041 58.4328 48.5641 56.9529 48.5636Z" fill="#CDAE7E"/>
<path d="M62.987 64.4939C62.7941 63.0212 62.0729 61.6692 60.9582 60.6904C59.8434 59.7116 58.4113 59.1728 56.9293 59.1748H56.2394V61.3942H57.4173C58.5341 61.3826 59.6348 61.6622 60.6113 62.2056C61.5877 62.7491 62.4064 63.5376 62.987 64.4939Z" fill="#CDAE7E"/>
<path d="M56.9529 53.8692H56.263V56.1021H57.4408C58.5554 56.0928 59.6533 56.3735 60.6272 56.9169C61.6011 57.4602 62.4177 58.2475 62.9971 59.2018C62.8082 57.7286 62.0904 56.3748 60.9781 55.3934C59.8657 54.412 58.4348 53.8702 56.9529 53.8692Z" fill="#CDAE7E"/>
<path d="M56.9529 32.6467H56.263V34.8526H57.4408C58.5558 34.8433 59.6541 35.1244 60.628 35.6684C61.602 36.2123 62.4184 37.0005 62.9971 37.9557C62.8029 36.4868 62.0829 35.1386 60.9711 34.162C59.8592 33.1854 58.4313 32.6469 56.9529 32.6467Z" fill="#CDAE7E"/>
<path d="M56.9529 37.9523H56.263V40.1717H57.4408C58.5551 40.1649 59.6521 40.4482 60.6243 40.994C61.5965 41.5397 62.4106 42.3291 62.987 43.2849C62.7983 41.8135 62.082 40.4611 60.9718 39.4799C59.8615 38.4987 58.4331 37.9558 56.9529 37.9523Z" fill="#CDAE7E"/>
<path d="M56.9529 11.1509H56.263V13.3703H57.4408C58.5558 13.3611 59.6541 13.6422 60.628 14.1861C61.602 14.7301 62.4184 15.5183 62.9971 16.4734C62.8052 15.0024 62.0863 13.6514 60.9743 12.6722C59.8623 11.693 58.4331 11.1523 56.9529 11.1509Z" fill="#CDAE7E"/>
<path d="M56.9529 5.57547H56.263V7.79487H57.4408C58.5547 7.78838 59.6512 8.07149 60.6232 8.61655C61.5953 9.16161 62.4097 9.94999 62.987 10.9047C62.7969 9.43417 62.0801 8.08297 60.97 7.10261C59.86 6.12226 58.4324 5.57953 56.9529 5.57547Z" fill="#CDAE7E"/>
<path d="M62.987 69.7996C62.7941 68.3269 62.0729 66.9748 60.9582 65.996C59.8434 65.0172 58.4113 64.4785 56.9293 64.4805H56.2394V66.6999H57.4173C58.5341 66.6882 59.6348 66.9678 60.6113 67.5113C61.5877 68.0547 62.4064 68.8433 62.987 69.7996Z" fill="#CDAE7E"/>
<path d="M56.9529 27.341H56.263V29.5571H57.4408C58.5558 29.5478 59.6541 29.8289 60.628 30.3729C61.602 30.9168 62.4184 31.705 62.9971 32.6602C62.8052 31.1894 62.0861 29.8389 60.9741 28.8602C59.862 27.8816 58.4328 27.3416 56.9529 27.341Z" fill="#CDAE7E"/>
<path d="M56.9529 22.0354H56.263V24.2514H57.4408C58.5558 24.2422 59.6541 24.5233 60.628 25.0672C61.602 25.6112 62.4184 26.3994 62.9971 27.3545C62.8052 25.8838 62.0861 24.5332 60.9741 23.5546C59.862 22.5759 58.4328 22.036 56.9529 22.0354Z" fill="#CDAE7E"/>
<path d="M56.9529 16.7264H56.263V18.9458H57.4408C58.5558 18.9365 59.6541 19.2176 60.628 19.7616C61.602 20.3056 62.4184 21.0937 62.9971 22.0489C62.8052 20.5779 62.0863 19.2269 60.9743 18.2477C59.8623 17.2685 58.4331 16.7278 56.9529 16.7264Z" fill="#CDAE7E"/>
<path d="M36.3702 43.2579H37.0601V45.4773H35.8822C34.7671 45.4678 33.6686 45.7484 32.6941 46.2917C31.7197 46.835 30.9025 47.6225 30.3226 48.5771C30.5159 47.1063 31.2359 45.7561 32.3483 44.7777C33.4608 43.7992 34.8901 43.2591 36.3702 43.2579Z" fill="#CDAE7E"/>
<path d="M36.3702 5.47844e-06L37.0601 5.1467e-06V2.2194L35.8822 2.2194C34.7672 2.21052 33.669 2.49141 32.6946 3.03466C31.7203 3.57792 30.903 4.36499 30.3226 5.31913C30.5159 3.84842 31.2359 2.4982 32.3483 1.51974C33.4608 0.541269 34.8901 0.00119235 36.3702 5.47844e-06Z" fill="#CDAE7E"/>
<path d="M36.3702 48.5636H37.0601V50.783H35.8822C34.7671 50.7734 33.6686 51.054 32.6941 51.5973C31.7197 52.1407 30.9025 52.9281 30.3226 53.8827C30.5159 52.412 31.2359 51.0618 32.3483 50.0833C33.4608 49.1048 34.8901 48.5648 36.3702 48.5636Z" fill="#CDAE7E"/>
<path d="M30.3226 64.494C30.5162 63.0215 31.2375 61.6699 32.3521 60.6912C33.4667 59.7125 34.8984 59.1736 36.3803 59.1748H37.0702V61.3942H35.8923C34.7756 61.3836 33.6753 61.6636 32.699 62.207C31.7227 62.7503 30.9039 63.5383 30.3226 64.494Z" fill="#CDAE7E"/>
<path d="M36.3702 53.8692L37.0601 53.8692V56.1021L35.8822 56.1021C34.7672 56.0932 33.669 56.3741 32.6946 56.9173C31.7203 57.4606 30.903 58.2477 30.3226 59.2018C30.5129 57.7287 31.2316 56.3752 32.3443 55.394C33.4571 54.4128 34.888 53.8708 36.3702 53.8692Z" fill="#CDAE7E"/>
<path d="M36.3702 32.6467H37.0601V34.8526H35.8822C34.7669 34.8437 33.6683 35.125 32.6938 35.6689C31.7194 36.2128 30.9023 37.0007 30.3226 37.9557C30.5182 36.4868 31.2391 35.139 32.3513 34.1626C33.4636 33.1862 34.8916 32.6475 36.3702 32.6467Z" fill="#CDAE7E"/>
<path d="M36.3702 37.9523H37.0601V40.1717H35.8822C34.7658 40.1636 33.6665 40.4462 32.6919 40.992C31.7173 41.5377 30.9009 42.3278 30.3226 43.2849C30.5129 41.8118 31.2316 40.4583 32.3443 39.4771C33.4571 38.4959 34.888 37.9539 36.3702 37.9523Z" fill="#CDAE7E"/>
<path d="M36.3702 11.1509H37.0601V13.3703H35.8822C34.7669 13.3615 33.6683 13.6427 32.6938 14.1866C31.7194 14.7305 30.9023 15.5184 30.3226 16.4734C30.5152 15.0021 31.2348 13.6511 32.3473 12.6719C33.4599 11.6928 34.8896 11.1522 36.3702 11.1509Z" fill="#CDAE7E"/>
<path d="M36.3702 5.57547L37.0601 5.57547V7.79487H35.8822C34.7663 7.78704 33.6674 8.06946 32.6929 8.61453C31.7185 9.15961 30.9018 9.9487 30.3226 10.9047C30.5137 9.43217 31.2326 8.07953 32.3453 7.09901C33.458 6.11848 34.8885 5.57698 36.3702 5.57547Z" fill="#CDAE7E"/>
<path d="M30.3226 69.7996C30.5162 68.3271 31.2375 66.9755 32.3521 65.9969C33.4667 65.0182 34.8984 64.4792 36.3803 64.4805H37.0702V66.6999H35.8923C34.7756 66.6892 33.6753 66.9693 32.699 67.5126C31.7227 68.0559 30.9039 68.844 30.3226 69.7996Z" fill="#CDAE7E"/>
<path d="M36.3702 27.341H37.0601V29.5571H35.8822C34.7669 29.5482 33.6683 29.8295 32.6938 30.3734C31.7194 30.9172 30.9023 31.7052 30.3226 32.6602C30.5159 31.1895 31.2359 29.8392 32.3483 28.8608C33.4608 27.8823 34.8901 27.3422 36.3702 27.341Z" fill="#CDAE7E"/>
<path d="M36.3702 22.0354H37.0601V24.2514H35.8822C34.7669 24.2426 33.6683 24.5238 32.6938 25.0677C31.7194 25.6116 30.9023 26.3995 30.3226 27.3545C30.5159 25.8838 31.2359 24.5336 32.3483 23.5551C33.4608 22.5767 34.8901 22.0366 36.3702 22.0354Z" fill="#CDAE7E"/>
<path d="M36.3702 16.7264H37.0601V18.9458H35.8822C34.7669 18.9369 33.6683 19.2182 32.6938 19.7621C31.7194 20.306 30.9023 21.0939 30.3226 22.0489C30.5152 20.5776 31.2348 19.2266 32.3473 18.2474C33.4599 17.2683 34.8896 16.7277 36.3702 16.7264Z" fill="#CDAE7E"/>
<path d="M86.7231 24.1401H86.0331V26.3595H87.211C88.3254 26.3492 89.4233 26.6292 90.3973 27.1719C91.3713 27.7147 92.188 28.5017 92.7673 29.4559C92.5746 27.9858 91.8553 26.636 90.7433 25.658C89.6313 24.6801 88.2025 24.1406 86.7231 24.1401Z" fill="#CDAE7E"/>
<path d="M86.7231 56.7767H86.0331V58.9961H87.211C88.326 58.9868 89.4243 59.2679 90.3982 59.8119C91.3722 60.3558 92.1885 61.144 92.7673 62.0992C92.5754 60.6281 91.8565 59.2772 90.7445 58.2979C89.6325 57.3187 88.2033 56.7781 86.7231 56.7767Z" fill="#CDAE7E"/>
<path d="M86.7231 62.0924H86.0331V64.3084H87.211C88.326 64.2992 89.4243 64.5803 90.3982 65.1242C91.3722 65.6682 92.1885 66.4564 92.7673 67.4115C92.5753 65.9408 91.8563 64.5903 90.7443 63.6116C89.6322 62.6329 88.203 62.093 86.7231 62.0924Z" fill="#CDAE7E"/>
<path d="M86.7231 35.2911H86.0331V37.5105H87.211C88.3256 37.5012 89.4235 37.7819 90.3974 38.3252C91.3713 38.8685 92.1879 39.6559 92.7673 40.6102C92.5747 39.1398 91.8554 37.7896 90.7435 36.8111C89.6316 35.8325 88.2028 35.2923 86.7231 35.2911Z" fill="#CDAE7E"/>
<path d="M86.7231 29.7156H86.0331V31.935H87.211C88.3256 31.9257 89.4235 32.2064 90.3974 32.7498C91.3713 33.2931 92.1879 34.0804 92.7673 35.0347C92.5747 33.5643 91.8554 32.2141 90.7435 31.2356C89.6316 30.2571 88.2028 29.7169 86.7231 29.7156Z" fill="#CDAE7E"/>
<path d="M86.7231 51.4778H86.0331V53.6972H87.211C88.326 53.6879 89.4243 53.969 90.3982 54.513C91.3722 55.0569 92.1885 55.8451 92.7673 56.8003C92.5754 55.3292 91.8565 53.9783 90.7445 52.9991C89.6325 52.0198 88.2033 51.4792 86.7231 51.4778Z" fill="#CDAE7E"/>
<path d="M86.7231 46.1722H86.0331V48.3916H87.211C88.3256 48.3823 89.4235 48.663 90.3974 49.2063C91.3713 49.7496 92.1879 50.5369 92.7673 51.4913C92.5747 50.0208 91.8554 48.6707 90.7435 47.6922C89.6316 46.7136 88.2028 46.1734 86.7231 46.1722Z" fill="#CDAE7E"/>
<path d="M86.7231 40.8665H86.0331V43.0859H87.211C88.3256 43.0766 89.4235 43.3574 90.3974 43.9007C91.3713 44.444 92.1879 45.2313 92.7673 46.1856C92.5747 44.7152 91.8554 43.3651 90.7435 42.3865C89.6316 41.408 88.2028 40.8678 86.7231 40.8665Z" fill="#CDAE7E"/>
<path d="M26.7082 36.9708H5.79902C4.68406 36.9619 3.58583 37.2428 2.61146 37.786C1.63709 38.3293 0.819839 39.1164 0.239403 40.0705C0.433006 38.5981 1.15436 37.2465 2.26895 36.2678C3.38353 35.2891 4.81525 34.7501 6.2971 34.7514H26.725L26.7082 36.9708Z" fill="#CDAE7E"/>
<path d="M6.28026 51.4778H26.7082V53.6972H5.79902C4.68367 53.6883 3.58512 53.9696 2.61066 54.5135C1.6362 55.0574 0.819177 55.8453 0.239403 56.8003C0.431876 55.3301 1.15048 53.98 2.26162 53.001C3.37276 52.022 4.80081 51.4807 6.28026 51.4778Z" fill="#CDAE7E"/>
<path d="M6.28026 62.0924H26.7082V64.3084H5.79902C4.68367 64.2996 3.58512 64.5808 2.61066 65.1247C1.6362 65.6686 0.819177 66.4566 0.239403 67.4115C0.432626 65.942 1.15156 64.5927 2.26262 63.6144C3.37368 62.6361 4.80132 62.0952 6.28026 62.0924Z" fill="#CDAE7E"/>
<path d="M26.7081 45.9023H22.4913V48.1217H26.7081V45.9023Z" fill="#CDAE7E"/>
<path d="M6.28026 45.9023H20.2702V48.1217H5.79902C4.68406 48.1128 3.58583 48.3937 2.61146 48.937C1.63709 49.4802 0.819839 50.2673 0.239403 51.2214C0.432626 49.7519 1.15156 48.4026 2.26262 47.4243C3.37368 46.446 4.80132 45.9051 6.28026 45.9023Z" fill="#CDAE7E"/>
<path d="M26.7081 40.3269H14.5759V42.5462H26.7081V40.3269Z" fill="#CDAE7E"/>
<path d="M6.28026 40.3269H12.3649V42.5462H5.79902C4.68292 42.5362 3.58332 42.8165 2.60767 43.3598C1.63202 43.9031 0.813688 44.6909 0.232666 45.646C0.426042 44.1753 1.14595 42.8251 2.25842 41.8466C3.37089 40.8681 4.80016 40.328 6.28026 40.3269Z" fill="#CDAE7E"/>
<path d="M26.7081 56.7834H14.5759V59.0028H26.7081V56.7834Z" fill="#CDAE7E"/>
<path d="M6.28026 56.7767H12.3649V58.9961H5.79902C4.68367 58.9872 3.58512 59.2685 2.61066 59.8124C1.6362 60.3563 0.819177 61.1442 0.239403 62.0992C0.431876 60.629 1.15048 59.2789 2.26162 58.2999C3.37276 57.3209 4.80081 56.7796 6.28026 56.7767Z" fill="#CDAE7E"/>
<path d="M26.7081 67.3981H22.4913V69.6174H26.7081V67.3981Z" fill="#CDAE7E"/>
<path d="M6.28026 67.398H20.2702V69.6141H5.79902C4.68367 69.6052 3.58512 69.8865 2.61066 70.4304C1.6362 70.9743 0.819177 71.7622 0.239403 72.7172C0.432626 71.2476 1.15156 69.8983 2.26262 68.92C3.37368 67.9417 4.80132 67.4009 6.28026 67.398Z" fill="#CDAE7E"/>
<path d="M6.28026 34.7514H6.97017V36.9708L5.79902 36.9708C4.68406 36.9619 3.58583 37.2428 2.61146 37.786C1.63709 38.3293 0.819839 39.1164 0.239403 40.0705C0.432626 38.601 1.15156 37.2517 2.26262 36.2733C3.37368 35.295 4.80132 34.7542 6.28026 34.7514Z" fill="#CDAE7E"/>
<path d="M6.28026 67.398H6.97017V69.6141H5.79902C4.68367 69.6052 3.58512 69.8865 2.61066 70.4304C1.6362 70.9743 0.819177 71.7622 0.239403 72.7172C0.432626 71.2476 1.15156 69.8983 2.26262 68.92C3.37368 67.9417 4.80132 67.4009 6.28026 67.398Z" fill="#CDAE7E"/>
<path d="M6.28026 45.9023H6.97017V48.1217H5.79902C4.68406 48.1128 3.58583 48.3937 2.61146 48.937C1.63709 49.4802 0.819839 50.2673 0.239403 51.2214C0.432626 49.7519 1.15156 48.4026 2.26262 47.4243C3.37368 46.446 4.80132 45.9051 6.28026 45.9023Z" fill="#CDAE7E"/>
<path d="M6.28026 40.3269H6.97017V42.5462H5.79902C4.68292 42.5362 3.58332 42.8165 2.60767 43.3598C1.63202 43.9031 0.813688 44.6909 0.232666 45.646C0.426042 44.1753 1.14595 42.8251 2.25842 41.8466C3.37089 40.8681 4.80016 40.328 6.28026 40.3269Z" fill="#CDAE7E"/>
<path d="M6.28026 62.0924H6.97017V64.3084H5.79902C4.68367 64.2996 3.58512 64.5808 2.61066 65.1247C1.6362 65.6686 0.819177 66.4566 0.239403 67.4115C0.432626 65.942 1.15156 64.5927 2.26262 63.6144C3.37368 62.6361 4.80132 62.0952 6.28026 62.0924Z" fill="#CDAE7E"/>
<path d="M6.28026 56.7767H6.97017V58.9961H5.79902C4.68367 58.9872 3.58512 59.2685 2.61066 59.8124C1.6362 60.3563 0.819177 61.1442 0.239403 62.0992C0.431876 60.629 1.15048 59.2789 2.26162 58.2999C3.37276 57.3209 4.80081 56.7796 6.28026 56.7767Z" fill="#CDAE7E"/>
<path d="M6.28026 51.4778H6.97017V53.6972H5.79902C4.68367 53.6883 3.58512 53.9696 2.61066 54.5135C1.6362 55.0574 0.819177 55.8453 0.239403 56.8003C0.431876 55.3301 1.15048 53.98 2.26162 53.001C3.37276 52.022 4.80081 51.4807 6.28026 51.4778Z" fill="#CDAE7E"/>
<path d="M10.1527 81.5788H8.40108C8.33371 81.2035 8.20833 80.8732 8.02494 80.588C7.84155 80.3027 7.61698 80.0606 7.35125 79.8617C7.08552 79.6628 6.78798 79.5126 6.45862 79.4113C6.13301 79.31 5.78681 79.2593 5.42003 79.2593C4.75757 79.2593 4.16436 79.4263 3.64038 79.7604C3.12015 80.0944 2.70845 80.5842 2.40529 81.2298C2.10588 81.8754 1.95617 82.6636 1.95617 83.5944C1.95617 84.5327 2.10588 85.3247 2.40529 85.9702C2.70845 86.6158 3.12202 87.1038 3.64599 87.434C4.16997 87.7643 4.75944 87.9295 5.41441 87.9295C5.77745 87.9295 6.12178 87.8807 6.44739 87.7831C6.77675 87.6818 7.07429 87.5335 7.34002 87.3383C7.60576 87.1432 7.83032 86.9048 8.01371 86.6233C8.20084 86.3381 8.32997 86.0115 8.40108 85.6437L10.1527 85.6493C10.0591 86.2161 9.87757 86.7378 9.60809 87.2145C9.34236 87.6874 8.99991 88.0965 8.58073 88.4418C8.16529 88.7834 7.68997 89.048 7.15476 89.2356C6.61956 89.4233 6.0357 89.5171 5.40319 89.5171C4.40763 89.5171 3.52061 89.2807 2.74214 88.8078C1.96366 88.3311 1.34986 87.6499 0.900735 86.7641C0.455356 85.8783 0.232666 84.8217 0.232666 83.5944C0.232666 82.3633 0.457227 81.3067 0.906349 80.4247C1.35547 79.5389 1.96927 78.8596 2.74775 78.3866C3.52623 77.91 4.41137 77.6716 5.40319 77.6716C6.01324 77.6716 6.58213 77.7598 7.10985 77.9362C7.64131 78.1089 8.1185 78.3641 8.54143 78.7019C8.96435 79.036 9.31429 79.4451 9.59125 79.9293C9.86821 80.4097 10.0553 80.9595 10.1527 81.5788Z" fill="white"/>
<path d="M13.9632 77.8293V89.3595H12.2284V77.8293H13.9632Z" fill="white"/>
<path d="M15.9225 79.3268V77.8293H24.8207V79.3268H21.2333V89.3595H19.5042V79.3268H15.9225Z" fill="white"/>
<path d="M25.9 77.8293H27.8705L30.874 83.0708H30.9975L34.001 77.8293H35.9716L31.8003 84.833V89.3595H30.0712V84.833L25.9 77.8293Z" fill="white"/>
<path d="M37.6095 89.3595V77.8293H39.3442V87.8619H44.554V89.3595H37.6095Z" fill="white"/>
<path d="M48.2677 77.8293V89.3595H46.533V77.8293H48.2677Z" fill="white"/>
<path d="M58.575 81.4719C58.4665 81.1303 58.3205 80.8244 58.1371 80.5542C57.9575 80.2802 57.7423 80.0475 57.4915 79.8561C57.2408 79.6609 56.9545 79.5126 56.6326 79.4113C56.3145 79.31 55.9645 79.2593 55.5828 79.2593C54.9353 79.2593 54.3514 79.4263 53.8312 79.7604C53.311 80.0944 52.8993 80.5842 52.5961 81.2298C52.2967 81.8716 52.147 82.6579 52.147 83.5888C52.147 84.5233 52.2986 85.3134 52.6017 85.959C52.9049 86.6046 53.3203 87.0944 53.848 87.4284C54.3758 87.7625 54.9765 87.9295 55.6501 87.9295C56.2752 87.9295 56.8197 87.8019 57.2838 87.5466C57.7517 87.2914 58.1128 86.9311 58.3673 86.4657C58.6256 85.9965 58.7547 85.4448 58.7547 84.8105L59.2038 84.8949H55.914V83.4593H60.4333V84.7711C60.4333 85.7394 60.2274 86.5802 59.8157 87.2933C59.4078 88.0027 58.8426 88.5507 58.1203 88.9373C57.4017 89.3238 56.5783 89.5171 55.6501 89.5171C54.6097 89.5171 53.6965 89.2769 52.9105 88.7965C52.1283 88.3161 51.5182 87.6348 51.0803 86.7528C50.6424 85.867 50.4235 84.8161 50.4235 83.6C50.4235 82.6804 50.5507 81.8547 50.8052 81.1228C51.0597 80.3909 51.4172 79.7697 51.8775 79.2593C52.3416 78.7451 52.8862 78.3529 53.5112 78.0826C54.14 77.8086 54.8267 77.6716 55.5715 77.6716C56.1928 77.6716 56.7711 77.7636 57.3063 77.9475C57.8452 78.1314 58.3243 78.3923 58.7435 78.7301C59.1664 79.0679 59.5163 79.4695 59.7933 79.9349C60.0702 80.3965 60.2574 80.9089 60.3547 81.4719H58.575Z" fill="white"/>
<path d="M62.6354 89.3595V77.8293H64.3701V82.84H70.102V77.8293H71.8424V89.3595H70.102V84.3319H64.3701V89.3595H62.6354Z" fill="white"/>
<path d="M73.8017 79.3268V77.8293H82.6999V79.3268H79.1126V89.3595H77.3834V79.3268H73.8017Z" fill="white"/>
<path d="M90.9371 80.8582C90.8772 80.3252 90.6302 79.9124 90.1961 79.6196C89.7619 79.3231 89.2155 79.1748 88.5568 79.1748C88.0852 79.1748 87.6772 79.2499 87.3329 79.4C86.9886 79.5464 86.721 79.7491 86.5301 80.0081C86.343 80.2633 86.2494 80.5542 86.2494 80.8807C86.2494 81.1547 86.313 81.3912 86.4403 81.5901C86.5713 81.789 86.7416 81.9561 86.9511 82.0912C87.1645 82.2225 87.3928 82.3333 87.6361 82.4233C87.8793 82.5097 88.1133 82.581 88.3378 82.6373L89.4606 82.93C89.8274 83.0201 90.2035 83.1421 90.589 83.296C90.9745 83.4499 91.332 83.6526 91.6613 83.904C91.9907 84.1555 92.2564 84.467 92.4585 84.8386C92.6644 85.2102 92.7673 85.655 92.7673 86.1729C92.7673 86.826 92.5989 87.4059 92.262 87.9126C91.9289 88.4193 91.4442 88.819 90.808 89.1118C90.1755 89.4045 89.4101 89.5509 88.5118 89.5509C87.651 89.5509 86.9062 89.4139 86.2775 89.1399C85.6487 88.8659 85.1565 88.4775 84.801 87.9745C84.4454 87.4678 84.2489 86.8673 84.2115 86.1729H85.9519C85.9855 86.5895 86.1203 86.9367 86.3561 87.2145C86.5956 87.4885 86.9006 87.693 87.2711 87.8281C87.6454 87.9595 88.0552 88.0252 88.5006 88.0252C88.9909 88.0252 89.4269 87.9482 89.8087 87.7944C90.1942 87.6367 90.4973 87.419 90.7182 87.1413C90.939 86.8598 91.0494 86.5314 91.0494 86.156C91.0494 85.8145 90.9521 85.5349 90.7575 85.3172C90.5666 85.0995 90.3065 84.9193 89.9771 84.7767C89.6515 84.6341 89.2828 84.5083 88.8711 84.3995L87.5126 84.0279C86.5919 83.7764 85.862 83.4067 85.3231 82.9188C84.7879 82.4309 84.5203 81.7853 84.5203 80.9821C84.5203 80.3177 84.6999 79.7378 85.0592 79.2424C85.4185 78.747 85.9051 78.3622 86.5189 78.0883C87.1327 77.8105 87.8251 77.6716 88.5961 77.6716C89.3745 77.6716 90.0613 77.8086 90.6564 78.0826C91.2552 78.3566 91.7268 78.7338 92.0711 79.2142C92.4155 79.6909 92.5951 80.2389 92.6101 80.8582H90.9371Z" fill="white"/>
<path d="M20.1484 108.517V96.9863H24.2467C25.1374 96.9863 25.8766 97.1402 26.4642 97.4479C27.0556 97.7557 27.4972 98.1817 27.7891 98.7259C28.0811 99.2664 28.227 99.8913 28.227 100.601C28.227 101.306 28.0792 101.928 27.7835 102.464C27.4916 102.997 27.0499 103.412 26.4586 103.708C25.871 104.005 25.1318 104.153 24.2411 104.153H21.1365V102.656H24.0839C24.6453 102.656 25.1019 102.575 25.4537 102.414C25.8092 102.252 26.0694 102.018 26.234 101.71C26.3987 101.402 26.4811 101.032 26.4811 100.601C26.4811 100.165 26.3968 99.7881 26.2284 99.4691C26.0637 99.1501 25.8036 98.9061 25.4481 98.7372C25.0963 98.5645 24.634 98.4782 24.0614 98.4782H21.8832V108.517H20.1484ZM25.8242 103.314L28.6649 108.517H26.6888L23.9042 103.314H25.8242Z" fill="white"/>
<path d="M30.3379 108.517V96.9863H37.5463V98.4838H32.0726V101.997H37.1702V103.489H32.0726V107.019H37.6137V108.517H30.3379Z" fill="white"/>
<path d="M40.8347 108.517H38.9933L43.1309 96.9863H45.1351L49.2726 108.517H47.4312L44.1807 99.0806H44.0909L40.8347 108.517ZM41.1435 104.001H47.1168V105.465H41.1435V104.001Z" fill="white"/>
<path d="M50.9329 108.517V96.9863H52.6677V107.019H57.8775V108.517H50.9329Z" fill="white"/>
<path d="M57.7919 98.4838V96.9863H66.6901V98.4838H63.1028V108.517H61.3736V98.4838H57.7919Z" fill="white"/>
<path d="M67.7694 96.9863H69.7399L72.7434 102.228H72.867L75.8705 96.9863H77.841L73.6698 103.99V108.517H71.9406V103.99L67.7694 96.9863Z" fill="white"/>
</svg>
