<svg xmlns="http://www.w3.org/2000/svg" width="93" height="109" fill="none"><path fill="#CDAE7E" d="M56.953 43.258H39.655v2.22H57.44a6.424 6.424 0 0 1 5.556 3.1 6.116 6.116 0 0 0-2.023-3.8 6.09 6.09 0 0 0-4.021-1.52ZM43.263 22.035H36.37a6.093 6.093 0 0 0-4.029 1.516 6.12 6.12 0 0 0-2.029 3.804 6.437 6.437 0 0 1 5.56-3.103h7.38l.01-2.217ZM56.953 22.035H45.477v2.216H57.43a6.428 6.428 0 0 1 5.556 3.104 6.116 6.116 0 0 0-2.02-3.797 6.09 6.09 0 0 0-4.014-1.523ZM86.723 62.092H66.295v2.216h20.916a6.428 6.428 0 0 1 5.556 3.103 6.117 6.117 0 0 0-2.023-3.8 6.09 6.09 0 0 0-4.02-1.519ZM86.723 29.716H66.295v2.219h20.916a6.43 6.43 0 0 1 5.556 3.1 6.12 6.12 0 0 0-2.023-3.8 6.094 6.094 0 0 0-4.02-1.52ZM86.723 40.867H66.295v2.219h20.916a6.43 6.43 0 0 1 5.556 3.1 6.12 6.12 0 0 0-2.023-3.8 6.094 6.094 0 0 0-4.02-1.52ZM86.723 51.478H66.295v2.22h20.916a6.426 6.426 0 0 1 5.556 3.102 6.12 6.12 0 0 0-2.022-3.8 6.093 6.093 0 0 0-4.022-1.522ZM76.072 35.291h-9.78v2.22h9.78v-2.22ZM86.723 35.291H78.29v2.22h8.922a6.43 6.43 0 0 1 5.556 3.1 6.12 6.12 0 0 0-2.023-3.8 6.093 6.093 0 0 0-4.02-1.52ZM69.253 46.172h-2.961v2.22h2.961v-2.22ZM86.723 46.172H71.468v2.22H87.21a6.43 6.43 0 0 1 5.556 3.1 6.119 6.119 0 0 0-2.023-3.8 6.093 6.093 0 0 0-4.02-1.52ZM79.528 56.783H66.292v2.22h13.236v-2.22ZM86.723 56.777h-4.977v2.22h5.465a6.426 6.426 0 0 1 5.556 3.102 6.12 6.12 0 0 0-2.022-3.801 6.093 6.093 0 0 0-4.022-1.521ZM69.253 67.398h-2.961v2.22h2.961v-2.22ZM86.723 67.398H71.468v2.216H87.21a6.426 6.426 0 0 1 5.556 3.103 6.117 6.117 0 0 0-2.023-3.8 6.09 6.09 0 0 0-4.02-1.519ZM86.723 24.14h-13.99v2.22h14.471a6.44 6.44 0 0 1 5.563 3.096 6.116 6.116 0 0 0-2.024-3.798 6.09 6.09 0 0 0-4.02-1.518ZM70.515 24.14h-4.223v2.22h4.223v-2.22ZM41.051 64.48h-4.68a6.097 6.097 0 0 0-4.029 1.517 6.122 6.122 0 0 0-2.03 3.803 6.44 6.44 0 0 1 5.56-3.1h5.17l.01-2.22ZM56.953 64.48h-13.69v2.22H57.43a6.43 6.43 0 0 1 5.556 3.1 6.12 6.12 0 0 0-2.02-3.796 6.093 6.093 0 0 0-4.014-1.523ZM49.307 53.87H36.37a6.097 6.097 0 0 0-4.028 1.516 6.123 6.123 0 0 0-2.03 3.802 6.457 6.457 0 0 1 5.57-3.086h13.425V53.87ZM56.953 53.87h-5.435v2.232h5.913a6.429 6.429 0 0 1 5.556 3.1 6.116 6.116 0 0 0-2.015-3.805 6.09 6.09 0 0 0-4.02-1.528ZM56.953 32.647H53.65v2.206h3.79a6.426 6.426 0 0 1 5.556 3.103 6.116 6.116 0 0 0-2.026-3.794 6.09 6.09 0 0 0-4.018-1.515ZM51.43 32.647H36.37a6.093 6.093 0 0 0-4.029 1.515 6.12 6.12 0 0 0-2.029 3.804 6.436 6.436 0 0 1 5.56-3.103H51.42l.01-2.216ZM56.953 11.15h-17.5v2.22h17.964a6.428 6.428 0 0 1 5.556 3.103 6.119 6.119 0 0 0-2.013-3.793 6.093 6.093 0 0 0-4.007-1.53ZM48.203 5.575H36.37a6.097 6.097 0 0 0-4.029 1.518 6.123 6.123 0 0 0-2.029 3.805 6.437 6.437 0 0 1 5.56-3.103h12.33v-2.22ZM56.953 5.575H50.41v2.22h7.02a6.43 6.43 0 0 1 5.556 3.11 6.119 6.119 0 0 0-2.017-3.802 6.093 6.093 0 0 0-4.017-1.528Z"/><path fill="#CDAE7E" d="M86.723 67.398h-.69v2.216h1.178a6.426 6.426 0 0 1 5.556 3.103 6.117 6.117 0 0 0-2.023-3.8 6.09 6.09 0 0 0-4.02-1.519ZM35.882 61.394h21.539a6.43 6.43 0 0 1 5.556 3.1 6.12 6.12 0 0 0-2.029-3.804 6.094 6.094 0 0 0-4.029-1.515H36.37a6.097 6.097 0 0 0-4.029 1.518 6.123 6.123 0 0 0-2.029 3.804 6.437 6.437 0 0 1 5.57-3.103ZM35.882 50.783h21.539a6.422 6.422 0 0 1 5.556 3.1 6.116 6.116 0 0 0-2.028-3.805 6.09 6.09 0 0 0-4.03-1.514H36.37a6.097 6.097 0 0 0-4.028 1.516 6.123 6.123 0 0 0-2.03 3.803 6.44 6.44 0 0 1 5.57-3.1ZM35.882 40.172h21.539a6.425 6.425 0 0 1 5.566 3.113 6.116 6.116 0 0 0-2.028-3.804 6.09 6.09 0 0 0-4.03-1.515H36.37a6.093 6.093 0 0 0-4.029 1.515 6.12 6.12 0 0 0-2.029 3.804 6.434 6.434 0 0 1 5.57-3.113ZM35.882 29.557h21.539a6.425 6.425 0 0 1 5.556 3.103 6.115 6.115 0 0 0-2.028-3.804 6.09 6.09 0 0 0-4.03-1.515H36.37a6.094 6.094 0 0 0-4.029 1.516 6.12 6.12 0 0 0-2.029 3.803 6.437 6.437 0 0 1 5.57-3.103ZM35.882 18.946h21.539a6.425 6.425 0 0 1 5.556 3.103 6.12 6.12 0 0 0-2.028-3.806 6.093 6.093 0 0 0-4.03-1.517H36.37a6.097 6.097 0 0 0-4.029 1.518 6.122 6.122 0 0 0-2.029 3.805 6.437 6.437 0 0 1 5.57-3.103ZM35.882 2.22h21.539a6.43 6.43 0 0 1 5.556 3.1 6.12 6.12 0 0 0-2.029-3.804A6.094 6.094 0 0 0 56.92 0H36.37a6.097 6.097 0 0 0-4.028 1.516 6.122 6.122 0 0 0-2.03 3.803 6.457 6.457 0 0 1 5.57-3.1Z"/><path fill="#CDAE7E" d="M56.953 43.258h-.69v2.22h1.178a6.424 6.424 0 0 1 5.556 3.1 6.116 6.116 0 0 0-2.023-3.8 6.09 6.09 0 0 0-4.021-1.52ZM56.953 0h-.69v2.22h1.178a6.43 6.43 0 0 1 5.556 3.1 6.119 6.119 0 0 0-2.024-3.8A6.093 6.093 0 0 0 56.953 0ZM56.953 48.564h-.69v2.219h1.178a6.423 6.423 0 0 1 5.556 3.1 6.116 6.116 0 0 0-2.023-3.8 6.09 6.09 0 0 0-4.021-1.52ZM62.987 64.494a6.12 6.12 0 0 0-2.029-3.804 6.094 6.094 0 0 0-4.029-1.515h-.69v2.22h1.178a6.43 6.43 0 0 1 5.57 3.099ZM56.953 53.87h-.69v2.232h1.178a6.43 6.43 0 0 1 5.556 3.1 6.116 6.116 0 0 0-2.019-3.809 6.09 6.09 0 0 0-4.025-1.524ZM56.953 32.647h-.69v2.206h1.178a6.426 6.426 0 0 1 5.556 3.103 6.116 6.116 0 0 0-2.026-3.794 6.09 6.09 0 0 0-4.018-1.515ZM56.953 37.952h-.69v2.22h1.178a6.423 6.423 0 0 1 5.546 3.113 6.116 6.116 0 0 0-2.015-3.805 6.09 6.09 0 0 0-4.02-1.528ZM56.953 11.15h-.69v2.22h1.178a6.428 6.428 0 0 1 5.556 3.103 6.12 6.12 0 0 0-2.023-3.8 6.094 6.094 0 0 0-4.021-1.522ZM56.953 5.575h-.69v2.22h1.178a6.43 6.43 0 0 1 5.546 3.11 6.119 6.119 0 0 0-2.017-3.802 6.093 6.093 0 0 0-4.017-1.528ZM62.987 69.8a6.12 6.12 0 0 0-2.029-3.804 6.094 6.094 0 0 0-4.029-1.515h-.69V66.7h1.178a6.429 6.429 0 0 1 5.57 3.1ZM56.953 27.341h-.69v2.216h1.178a6.426 6.426 0 0 1 5.556 3.103 6.116 6.116 0 0 0-2.023-3.8 6.09 6.09 0 0 0-4.021-1.519ZM56.953 22.035h-.69v2.216h1.178a6.428 6.428 0 0 1 5.556 3.104 6.116 6.116 0 0 0-2.023-3.8 6.09 6.09 0 0 0-4.021-1.52ZM56.953 16.726h-.69v2.22h1.178a6.426 6.426 0 0 1 5.556 3.103 6.12 6.12 0 0 0-2.023-3.801 6.094 6.094 0 0 0-4.021-1.522ZM36.37 43.258h.69v2.22h-1.178a6.434 6.434 0 0 0-5.56 3.1 6.122 6.122 0 0 1 2.026-3.8 6.097 6.097 0 0 1 4.022-1.52ZM36.37 0h.69v2.22h-1.178a6.44 6.44 0 0 0-5.56 3.1 6.123 6.123 0 0 1 2.026-3.8A6.097 6.097 0 0 1 36.37 0ZM36.37 48.564h.69v2.219h-1.178a6.433 6.433 0 0 0-5.56 3.1 6.123 6.123 0 0 1 2.026-3.8 6.097 6.097 0 0 1 4.022-1.52ZM30.323 64.494a6.122 6.122 0 0 1 2.03-3.803 6.097 6.097 0 0 1 4.027-1.516h.69v2.22h-1.178a6.44 6.44 0 0 0-5.57 3.099ZM36.37 53.87h.69v2.232h-1.178a6.44 6.44 0 0 0-5.56 3.1 6.123 6.123 0 0 1 2.022-3.808 6.097 6.097 0 0 1 4.026-1.525ZM36.37 32.647h.69v2.206h-1.178a6.437 6.437 0 0 0-5.56 3.103 6.123 6.123 0 0 1 2.03-3.793 6.097 6.097 0 0 1 4.018-1.516ZM36.37 37.952h.69v2.22h-1.178a6.433 6.433 0 0 0-5.56 3.113 6.123 6.123 0 0 1 2.022-3.808 6.097 6.097 0 0 1 4.026-1.525ZM36.37 11.15h.69v2.22h-1.178a6.438 6.438 0 0 0-5.56 3.103 6.123 6.123 0 0 1 2.025-3.801 6.097 6.097 0 0 1 4.023-1.521ZM36.37 5.575h.69v2.22h-1.178a6.44 6.44 0 0 0-5.56 3.11 6.122 6.122 0 0 1 2.023-3.806 6.097 6.097 0 0 1 4.025-1.524ZM30.323 69.8a6.122 6.122 0 0 1 2.03-3.803 6.097 6.097 0 0 1 4.027-1.516h.69V66.7h-1.178a6.44 6.44 0 0 0-5.57 3.1ZM36.37 27.341h.69v2.216h-1.178a6.437 6.437 0 0 0-5.56 3.103 6.122 6.122 0 0 1 2.026-3.8 6.097 6.097 0 0 1 4.022-1.519ZM36.37 22.035h.69v2.216h-1.178a6.438 6.438 0 0 0-5.56 3.104 6.123 6.123 0 0 1 2.026-3.8 6.097 6.097 0 0 1 4.022-1.52ZM36.37 16.726h.69v2.22h-1.178a6.437 6.437 0 0 0-5.56 3.103 6.123 6.123 0 0 1 2.025-3.802 6.097 6.097 0 0 1 4.023-1.52ZM86.723 24.14h-.69v2.22h1.178a6.424 6.424 0 0 1 5.556 3.096 6.116 6.116 0 0 0-2.024-3.798 6.09 6.09 0 0 0-4.02-1.518ZM86.723 56.777h-.69v2.22h1.178a6.426 6.426 0 0 1 5.556 3.102 6.12 6.12 0 0 0-2.022-3.801 6.093 6.093 0 0 0-4.022-1.521ZM86.723 62.092h-.69v2.216h1.178a6.428 6.428 0 0 1 5.556 3.103 6.117 6.117 0 0 0-2.023-3.8 6.09 6.09 0 0 0-4.02-1.519ZM86.723 35.291h-.69v2.22h1.178a6.43 6.43 0 0 1 5.556 3.1 6.12 6.12 0 0 0-2.023-3.8 6.093 6.093 0 0 0-4.02-1.52ZM86.723 29.716h-.69v2.219h1.178a6.43 6.43 0 0 1 5.556 3.1 6.12 6.12 0 0 0-2.023-3.8 6.094 6.094 0 0 0-4.02-1.52ZM86.723 51.478h-.69v2.22h1.178a6.426 6.426 0 0 1 5.556 3.102 6.12 6.12 0 0 0-2.022-3.8 6.093 6.093 0 0 0-4.022-1.522ZM86.723 46.172h-.69v2.22h1.178a6.43 6.43 0 0 1 5.556 3.1 6.119 6.119 0 0 0-2.023-3.8 6.093 6.093 0 0 0-4.02-1.52ZM86.723 40.867h-.69v2.219h1.178a6.43 6.43 0 0 1 5.556 3.1 6.12 6.12 0 0 0-2.023-3.8 6.094 6.094 0 0 0-4.02-1.52ZM26.708 36.97H5.8a6.44 6.44 0 0 0-5.56 3.1 6.123 6.123 0 0 1 2.03-3.802 6.097 6.097 0 0 1 4.028-1.517h20.428l-.017 2.22ZM6.28 51.478h20.428v2.22H5.8A6.436 6.436 0 0 0 .239 56.8a6.123 6.123 0 0 1 2.023-3.799 6.097 6.097 0 0 1 4.018-1.523ZM6.28 62.092h20.428v2.216H5.8a6.437 6.437 0 0 0-5.56 3.103 6.123 6.123 0 0 1 2.024-3.797 6.097 6.097 0 0 1 4.017-1.522ZM26.708 45.902h-4.217v2.22h4.217v-2.22ZM6.28 45.902h13.99v2.22H5.8a6.44 6.44 0 0 0-5.56 3.1 6.123 6.123 0 0 1 2.024-3.798 6.097 6.097 0 0 1 4.017-1.522ZM26.708 40.327H14.576v2.22h12.132v-2.22ZM6.28 40.327h6.085v2.22H5.799a6.44 6.44 0 0 0-5.566 3.099 6.123 6.123 0 0 1 2.025-3.8 6.096 6.096 0 0 1 4.022-1.52ZM26.708 56.783H14.576v2.22h12.132v-2.22ZM6.28 56.777h6.085v2.22H5.799a6.436 6.436 0 0 0-5.56 3.102 6.123 6.123 0 0 1 2.023-3.8 6.097 6.097 0 0 1 4.018-1.522ZM26.708 67.398h-4.217v2.22h4.217v-2.22ZM6.28 67.398h13.99v2.216H5.8a6.436 6.436 0 0 0-5.56 3.103 6.123 6.123 0 0 1 2.024-3.797 6.097 6.097 0 0 1 4.017-1.522Z"/><path fill="#CDAE7E" d="M6.28 34.751h.69v2.22H5.8a6.44 6.44 0 0 0-5.56 3.1 6.123 6.123 0 0 1 2.024-3.798 6.097 6.097 0 0 1 4.017-1.522ZM6.28 67.398h.69v2.216H5.8a6.436 6.436 0 0 0-5.56 3.103 6.123 6.123 0 0 1 2.024-3.797 6.097 6.097 0 0 1 4.017-1.522ZM6.28 45.902h.69v2.22H5.8a6.44 6.44 0 0 0-5.56 3.1 6.123 6.123 0 0 1 2.024-3.798 6.097 6.097 0 0 1 4.017-1.522ZM6.28 40.327h.69v2.22H5.8a6.44 6.44 0 0 0-5.566 3.099 6.123 6.123 0 0 1 2.025-3.8 6.096 6.096 0 0 1 4.022-1.52ZM6.28 62.092h.69v2.216H5.8a6.437 6.437 0 0 0-5.56 3.103 6.123 6.123 0 0 1 2.024-3.797 6.097 6.097 0 0 1 4.017-1.522ZM6.28 56.777h.69v2.22H5.8a6.436 6.436 0 0 0-5.56 3.102 6.123 6.123 0 0 1 2.023-3.8 6.097 6.097 0 0 1 4.018-1.522ZM6.28 51.478h.69v2.22H5.8A6.436 6.436 0 0 0 .239 56.8a6.123 6.123 0 0 1 2.023-3.799 6.097 6.097 0 0 1 4.018-1.523Z"/><path fill="#fff" d="M10.153 81.579H8.4a2.69 2.69 0 0 0-1.05-1.717 2.899 2.899 0 0 0-.892-.45 3.477 3.477 0 0 0-1.039-.153 3.24 3.24 0 0 0-1.78.501c-.52.334-.932.824-1.235 1.47-.3.645-.449 1.434-.449 2.364 0 .939.15 1.73.45 2.376.302.646.716 1.134 1.24 1.464.524.33 1.113.496 1.768.496a3.58 3.58 0 0 0 1.033-.147c.33-.101.627-.25.893-.445s.49-.433.674-.715a2.7 2.7 0 0 0 .387-.98l1.752.006a4.713 4.713 0 0 1-.545 1.566 4.316 4.316 0 0 1-1.027 1.227 4.64 4.64 0 0 1-1.426.794 5.26 5.26 0 0 1-1.752.281c-.995 0-1.882-.236-2.66-.71-.78-.476-1.393-1.157-1.842-2.043-.446-.886-.668-1.942-.668-3.17 0-1.23.224-2.287.673-3.17.45-.885 1.063-1.564 1.842-2.037.778-.477 1.663-.715 2.655-.715.61 0 1.18.088 1.707.264a4.502 4.502 0 0 1 1.431.766 4.21 4.21 0 0 1 1.05 1.227c.277.48.464 1.03.562 1.65ZM13.963 77.83v11.53h-1.735V77.83h1.735ZM15.922 79.327v-1.498h8.899v1.498h-3.588v10.032h-1.729V79.328h-3.582ZM25.9 77.83h1.97l3.004 5.24h.123l3.004-5.24h1.97l-4.17 7.003v4.526h-1.73v-4.526L25.9 77.829ZM37.61 89.36V77.83h1.734v10.032h5.21v1.498h-6.945ZM48.268 77.83v11.53h-1.735V77.83h1.735ZM58.575 81.472a3.52 3.52 0 0 0-.438-.918 2.801 2.801 0 0 0-1.504-1.143 3.446 3.446 0 0 0-1.05-.152c-.648 0-1.232.167-1.752.501-.52.334-.932.824-1.235 1.47-.3.642-.449 1.428-.449 2.359 0 .934.152 1.724.455 2.37.303.646.718 1.135 1.246 1.47.528.334 1.129.5 1.802.5.625 0 1.17-.127 1.634-.382a2.663 2.663 0 0 0 1.083-1.081c.259-.47.388-1.021.388-1.655l.449.084h-3.29v-1.436h4.52v1.312c0 .968-.207 1.81-.618 2.522a4.21 4.21 0 0 1-1.696 1.644c-.718.387-1.542.58-2.47.58-1.04 0-1.953-.24-2.74-.72-.782-.48-1.392-1.162-1.83-2.044-.438-.886-.657-1.937-.657-3.153 0-.92.128-1.745.382-2.477.255-.732.612-1.353 1.072-1.864a4.683 4.683 0 0 1 1.634-1.176 5.101 5.101 0 0 1 2.06-.411c.622 0 1.2.092 1.735.276a4.675 4.675 0 0 1 1.438.782 4.428 4.428 0 0 1 1.61 2.742h-1.779ZM62.635 89.36V77.83h1.735v5.01h5.732v-5.01h1.74v11.53h-1.74v-5.028H64.37v5.028h-1.735ZM73.802 79.327v-1.498H82.7v1.498h-3.587v10.032h-1.73V79.328h-3.581ZM90.937 80.858a1.646 1.646 0 0 0-.74-1.238c-.435-.297-.981-.445-1.64-.445-.472 0-.88.075-1.224.225-.344.146-.612.35-.803.608-.187.255-.28.546-.28.873 0 .274.063.51.19.71.131.198.302.365.511.5.214.132.442.242.685.332.243.087.477.158.702.214l1.123.293c.366.09.743.212 1.128.366.386.154.743.357 1.072.608.33.252.595.563.797.935.206.371.31.816.31 1.334 0 .653-.17 1.233-.506 1.74-.333.506-.818.906-1.454 1.199-.633.293-1.398.439-2.296.439-.861 0-1.606-.137-2.234-.411-.63-.274-1.122-.662-1.477-1.165-.356-.507-.552-1.108-.59-1.802h1.74c.035.416.17.764.405 1.041.24.275.545.479.915.614.374.132.784.197 1.23.197.49 0 .926-.077 1.308-.23.385-.158.688-.376.91-.654.22-.281.33-.61.33-.985 0-.342-.097-.621-.292-.839a2.156 2.156 0 0 0-.78-.54 7.61 7.61 0 0 0-1.106-.377l-1.358-.372c-.921-.252-1.651-.621-2.19-1.11-.535-.487-.803-1.133-.803-1.936 0-.664.18-1.244.54-1.74.358-.495.845-.88 1.459-1.154.614-.277 1.306-.416 2.077-.416.778 0 1.465.137 2.06.41.6.275 1.07.652 1.415 1.132.344.477.524 1.025.54 1.644h-1.674ZM20.148 108.517v-11.53h4.099c.89 0 1.63.153 2.217.46.592.309 1.033.735 1.325 1.279.292.54.438 1.165.438 1.875 0 .705-.148 1.327-.444 1.863-.291.533-.733.948-1.324 1.244-.588.297-1.327.445-2.218.445h-3.104v-1.497h2.947c.561 0 1.018-.081 1.37-.242.355-.162.615-.396.78-.704.165-.308.247-.678.247-1.109 0-.436-.084-.813-.253-1.132a1.634 1.634 0 0 0-.78-.732c-.352-.172-.814-.259-1.387-.259h-2.178v10.039h-1.735Zm5.676-5.203 2.84 5.203H26.69l-2.785-5.203h1.92ZM30.338 108.517v-11.53h7.208v1.497h-5.473v3.513h5.097v1.492h-5.097v3.53h5.54v1.498h-7.275ZM40.835 108.517h-1.842l4.138-11.53h2.004l4.138 11.53H47.43l-3.25-9.436h-.09l-3.256 9.436Zm.309-4.516h5.973v1.464h-5.973v-1.464ZM50.933 108.517v-11.53h1.735v10.032h5.21v1.498h-6.945ZM57.792 98.484v-1.498h8.898v1.498h-3.587v10.033h-1.73V98.484h-3.581ZM67.77 96.986h1.97l3.003 5.242h.124l3.004-5.242h1.97l-4.171 7.004v4.527h-1.73v-4.527l-4.17-7.004Z"/></svg>